<svg version="1" xmlns="http://www.w3.org/2000/svg" width="909.333" height="909.333" viewBox="0 0 682.000000 682.000000"><path d="M342 13.3c-32.9 12.2-35.5 13.4-35.8 15.7-.5 3.5-7.2 38.2-7.7 39.8-.3.8-5.3-2-13.9-7.7-8-5.3-14.2-8.8-15.3-8.5-1 .2-27 4.7-57.8 9.9-30.8 5.3-57.6 10-59.6 10.6-2.1.5-4 1.7-4.4 2.7-.4.9-1.6 13.6-2.6 28.2-1.1 14.5-2.1 26.5-2.3 26.7-.1.1-22.4 7.7-49.6 16.8-27.1 9-49.5 16.6-49.7 16.8-.2.2-.9 2.8-1.5 5.8-1.2 6-4-10.6 30.3 180.9 7.1 39.9 16.3 91.3 20.4 114.2 4.1 22.9 7.8 42.4 8.1 43.3.4.9 11.8 10.5 25.3 21.3 13.5 10.9 50.2 41.1 81.6 67.2 68.4 56.9 101.6 83.7 105.1 84.6 3.3.8 8-.2 11.2-2.4 1.5-1.1 73-40.5 158.9-87.6 139.5-76.6 156.2-86 157.4-88.8 1-2.5 1-9.6.1-37.2-.7-18.8-2.3-65.6-3.7-104.1-1.3-38.5-2.7-77.7-3.1-87.2l-.7-17.1-7.6-3.5c-4.2-1.9-15.2-6.5-24.6-10.2-9.3-3.7-17.1-6.8-17.3-7-.2-.1 7.6-5.3 17.2-11.5 9.6-6.1 18-11.8 18.7-12.6.8-1 .8-15.8-.1-61.1-.6-32.9-1.3-60.8-1.6-61.9-.2-1.2-1.1-2.4-1.9-2.8-.9-.3-21.8-3.6-46.5-7.3l-44.9-6.7-8.6 5.3-8.7 5.3-31.9-15.6C457.3 59 442 52 441 52c-1.1 0-5 1.1-8.6 2.5-3.7 1.4-6.9 2.3-7.2 2.1-.5-.6 1.8-7.8 2.9-9.1 2.6-2.7.5-5.4-14.3-18.5-8.4-7.4-19.2-17-24-21.3-4.9-4.2-9.6-7.7-10.6-7.7-.9.1-17.7 6-37.2 13.3zm132.5 59.5l31.7 15.8-8.3 5.1c-4.6 2.8-15.1 7.8-23.4 11.1-8.2 3.3-21.6 8.7-29.6 12l-14.7 6-30.2-20.1c-26.5-17.7-29.9-20.2-27.8-20.9 1.2-.5 16.7-6.2 34.3-12.7 17.6-6.6 33-12 34.1-12 1.2-.1 16.4 7 33.9 15.7zM368.6 110c20.8 2.8 38.3 5.1 38.8 5.3.4.1-17.6 12.5-40.2 27.5l-41 27.3-35.9-9.1c-19.7-5-37.5-9.6-39.7-10.1-2.1-.6-3.5-1.4-3-1.9 2.3-2.2 79.2-44 81-44 1.2 0 19.2 2.3 40 5zm-140.5 54.9c9.3 3.2 60.6 23.4 64.1 25.2l2.2 1.2-2.5 1.2C287 195.1 204 228 202.4 228c-2.1 0-70.4-33.6-70.4-34.7 0-.9 83.4-31.2 86.1-31.2.8-.1 5.3 1.2 10 2.8zm287.3 28.8c3.4 40.8 6.6 88.1 6.6 96.8v7.1l-16.2 6.9c-36.4 15.3-93.1 38.5-94.3 38.5-.7 0-1.5-1.5-1.9-3.3-.6-3.5-9-83.5-10.1-95.7-.3-4.1-.8-9.1-1.1-11.2l-.5-3.6 20.6-8.1c17.1-6.8 79.2-30.1 90-33.9 5.9-2.1 6.2-1.9 6.9 6.5zM103.9 310.9l25.9 13 1.6 8.8c3.8 21 10.3 62.9 15 97 .3 1.8.3 3.3 0 3.3-.8 0-37.1-23.3-45.1-28.9-5.2-3.7-7.4-5.9-8.2-8.3-2-6.4-17.1-90.7-17.1-95.8 0-1.1.5-2 1-2 .6 0 12.7 5.8 26.9 12.9zm420.5 3.3c2.1 24.3 6.3 89.4 6.8 106.1l.3 9.9-10 4.6c-12.8 5.9-95.9 42.1-96.2 41.8-1.1-1-13.7-117.9-13.1-121.8.2-1.4 2.2-2.8 6.3-4.6 14.1-6 104.1-43.1 104.6-43.2.3 0 .9 3.3 1.3 7.2zM172 345.5c30 15 30.9 15.6 31.5 18.7 2 12.2 9.1 67.8 13.9 110 .2 2.1.3 3.8.1 3.8-.2 0-13.4-8.2-29.2-18.3-19.7-12.6-29.2-19.2-30.1-21-1.4-3-5.9-28.9-12.6-73.2-2.5-16.5-4.8-31.2-5.1-32.8-.2-1.5-.2-2.7 0-2.7.3 0 14.4 7 31.5 15.5zm74.1 37.6c17.5 8.9 32.6 16.7 33.4 17.3 1.1.8 2.9 11.3 7 41.1 6.5 48.1 11 85.4 10.2 86.1-.5.5-63.8-38.6-66.6-41.2-1.5-1.3-3.7-15.9-12.6-80.4-2.4-17.9-4.7-34-4.9-35.8-.3-1.9 0-3.2.6-3.2s15.4 7.3 32.9 16.1zm287.3 65.1c3 34.2 5.8 74.8 5.9 86.2l.2 13.9-50 27.3c-27.5 15-50.3 27.1-50.6 26.8-.4-.2-.9-3.6-1.3-7.6-.4-4-2.9-28-5.6-53.3-2.7-25.3-5.1-48.1-5.4-50.7l-.5-4.6 12.7-5.8c11.9-5.3 71.6-31.2 84.7-36.7 9.1-3.8 9.1-3.8 9.9 4.5z"/></svg>